<mxfile host="app.diagrams.net" modified="2024-01-22T15:45:38.058Z" agent="Mozilla/5.0 (Windows NT 10.0; Win64; x64) AppleWebKit/537.36 (KHTML, like Gecko) Chrome/120.0.0.0 Safari/537.36" etag="FIrPXd8zFa7JhlRTWMRf" version="22.1.21" type="device">
  <diagram name="Page-1" id="Oby4G7cK-g0r6j5W1800">
    <mxGraphModel dx="1195" dy="650" grid="1" gridSize="10" guides="1" tooltips="1" connect="1" arrows="1" fold="1" page="1" pageScale="1" pageWidth="827" pageHeight="1169" math="0" shadow="0">
      <root>
        <mxCell id="0" />
        <mxCell id="1" parent="0" />
        <mxCell id="93DRXRUWouROfZaIpJ4n-11" style="edgeStyle=orthogonalEdgeStyle;rounded=0;orthogonalLoop=1;jettySize=auto;html=1;exitX=0.5;exitY=0.5;exitDx=0;exitDy=0;exitPerimeter=0;" edge="1" parent="1" source="93DRXRUWouROfZaIpJ4n-1" target="93DRXRUWouROfZaIpJ4n-2">
          <mxGeometry relative="1" as="geometry" />
        </mxCell>
        <mxCell id="93DRXRUWouROfZaIpJ4n-12" style="edgeStyle=orthogonalEdgeStyle;rounded=0;orthogonalLoop=1;jettySize=auto;html=1;exitX=0.5;exitY=0.5;exitDx=0;exitDy=0;exitPerimeter=0;entryX=0;entryY=0.5;entryDx=0;entryDy=0;" edge="1" parent="1" source="93DRXRUWouROfZaIpJ4n-1" target="93DRXRUWouROfZaIpJ4n-3">
          <mxGeometry relative="1" as="geometry" />
        </mxCell>
        <mxCell id="93DRXRUWouROfZaIpJ4n-1" value="Client" style="shape=umlActor;verticalLabelPosition=bottom;verticalAlign=top;html=1;" vertex="1" parent="1">
          <mxGeometry x="60" y="60" width="40" height="80" as="geometry" />
        </mxCell>
        <mxCell id="93DRXRUWouROfZaIpJ4n-2" value="Scanne sa carte" style="ellipse;whiteSpace=wrap;html=1;" vertex="1" parent="1">
          <mxGeometry x="190" y="65" width="110" height="55" as="geometry" />
        </mxCell>
        <mxCell id="93DRXRUWouROfZaIpJ4n-3" value="Recharge sa carte" style="ellipse;whiteSpace=wrap;html=1;" vertex="1" parent="1">
          <mxGeometry x="195" y="190" width="100" height="50" as="geometry" />
        </mxCell>
        <mxCell id="93DRXRUWouROfZaIpJ4n-6" value="Extends" style="endArrow=block;endSize=16;endFill=0;html=1;rounded=0;" edge="1" parent="1">
          <mxGeometry width="160" relative="1" as="geometry">
            <mxPoint x="460" y="92" as="sourcePoint" />
            <mxPoint x="330" y="92" as="targetPoint" />
          </mxGeometry>
        </mxCell>
        <mxCell id="93DRXRUWouROfZaIpJ4n-7" value="Vérifie si la carte à encore des trajtes" style="ellipse;whiteSpace=wrap;html=1;" vertex="1" parent="1">
          <mxGeometry x="480" y="60" width="130" height="65" as="geometry" />
        </mxCell>
        <mxCell id="93DRXRUWouROfZaIpJ4n-13" value="Extends" style="endArrow=block;endSize=16;endFill=0;html=1;rounded=0;" edge="1" parent="1">
          <mxGeometry width="160" relative="1" as="geometry">
            <mxPoint x="450" y="214.5" as="sourcePoint" />
            <mxPoint x="320" y="214.5" as="targetPoint" />
          </mxGeometry>
        </mxCell>
        <mxCell id="93DRXRUWouROfZaIpJ4n-14" value="Paiment" style="ellipse;whiteSpace=wrap;html=1;" vertex="1" parent="1">
          <mxGeometry x="470" y="192.5" width="95" height="47.5" as="geometry" />
        </mxCell>
        <mxCell id="93DRXRUWouROfZaIpJ4n-15" value="Carte" style="ellipse;whiteSpace=wrap;html=1;" vertex="1" parent="1">
          <mxGeometry x="660" y="160" width="95" height="47.5" as="geometry" />
        </mxCell>
        <mxCell id="93DRXRUWouROfZaIpJ4n-16" value="Monnaie" style="ellipse;whiteSpace=wrap;html=1;" vertex="1" parent="1">
          <mxGeometry x="660" y="270" width="95" height="47.5" as="geometry" />
        </mxCell>
        <mxCell id="93DRXRUWouROfZaIpJ4n-17" value="Extends" style="endArrow=block;endSize=16;endFill=0;html=1;rounded=0;exitX=0;exitY=0.5;exitDx=0;exitDy=0;" edge="1" parent="1" source="93DRXRUWouROfZaIpJ4n-15">
          <mxGeometry width="160" relative="1" as="geometry">
            <mxPoint x="695" y="215.82999999999998" as="sourcePoint" />
            <mxPoint x="565" y="215.82999999999998" as="targetPoint" />
          </mxGeometry>
        </mxCell>
        <mxCell id="93DRXRUWouROfZaIpJ4n-18" value="Extends" style="endArrow=block;endSize=16;endFill=0;html=1;rounded=0;exitX=0;exitY=0.5;exitDx=0;exitDy=0;entryX=0.991;entryY=0.684;entryDx=0;entryDy=0;entryPerimeter=0;" edge="1" parent="1" source="93DRXRUWouROfZaIpJ4n-16" target="93DRXRUWouROfZaIpJ4n-14">
          <mxGeometry width="160" relative="1" as="geometry">
            <mxPoint x="660" y="250" as="sourcePoint" />
            <mxPoint x="565" y="281.83" as="targetPoint" />
          </mxGeometry>
        </mxCell>
        <mxCell id="93DRXRUWouROfZaIpJ4n-35" style="edgeStyle=orthogonalEdgeStyle;rounded=0;orthogonalLoop=1;jettySize=auto;html=1;exitX=0.5;exitY=0.5;exitDx=0;exitDy=0;exitPerimeter=0;entryX=1;entryY=0.5;entryDx=0;entryDy=0;" edge="1" parent="1" source="93DRXRUWouROfZaIpJ4n-19" target="93DRXRUWouROfZaIpJ4n-15">
          <mxGeometry relative="1" as="geometry" />
        </mxCell>
        <mxCell id="93DRXRUWouROfZaIpJ4n-19" value="Banque" style="shape=umlActor;verticalLabelPosition=bottom;verticalAlign=top;html=1;" vertex="1" parent="1">
          <mxGeometry x="827" y="153.75" width="30" height="60" as="geometry" />
        </mxCell>
        <mxCell id="93DRXRUWouROfZaIpJ4n-31" style="edgeStyle=orthogonalEdgeStyle;rounded=0;orthogonalLoop=1;jettySize=auto;html=1;exitX=0.5;exitY=0.5;exitDx=0;exitDy=0;exitPerimeter=0;entryX=0;entryY=0.5;entryDx=0;entryDy=0;" edge="1" parent="1" source="93DRXRUWouROfZaIpJ4n-21" target="93DRXRUWouROfZaIpJ4n-30">
          <mxGeometry relative="1" as="geometry" />
        </mxCell>
        <mxCell id="93DRXRUWouROfZaIpJ4n-33" style="edgeStyle=orthogonalEdgeStyle;rounded=0;orthogonalLoop=1;jettySize=auto;html=1;exitX=0.5;exitY=0.5;exitDx=0;exitDy=0;exitPerimeter=0;entryX=0;entryY=0.5;entryDx=0;entryDy=0;" edge="1" parent="1" source="93DRXRUWouROfZaIpJ4n-21" target="93DRXRUWouROfZaIpJ4n-32">
          <mxGeometry relative="1" as="geometry" />
        </mxCell>
        <mxCell id="93DRXRUWouROfZaIpJ4n-21" value="Agent" style="shape=umlActor;verticalLabelPosition=bottom;verticalAlign=top;html=1;" vertex="1" parent="1">
          <mxGeometry x="65" y="350" width="35" height="70" as="geometry" />
        </mxCell>
        <mxCell id="93DRXRUWouROfZaIpJ4n-34" style="edgeStyle=orthogonalEdgeStyle;rounded=0;orthogonalLoop=1;jettySize=auto;html=1;exitX=0.5;exitY=0.5;exitDx=0;exitDy=0;exitPerimeter=0;" edge="1" parent="1" source="93DRXRUWouROfZaIpJ4n-22">
          <mxGeometry relative="1" as="geometry">
            <mxPoint x="240" y="550.2758620689656" as="targetPoint" />
          </mxGeometry>
        </mxCell>
        <mxCell id="93DRXRUWouROfZaIpJ4n-22" value="Technicien" style="shape=umlActor;verticalLabelPosition=bottom;verticalAlign=top;html=1;" vertex="1" parent="1">
          <mxGeometry x="60" y="515" width="35" height="70" as="geometry" />
        </mxCell>
        <mxCell id="93DRXRUWouROfZaIpJ4n-27" value="" style="endArrow=none;html=1;edgeStyle=orthogonalEdgeStyle;rounded=0;" edge="1" parent="1">
          <mxGeometry relative="1" as="geometry">
            <mxPoint x="80" y="460" as="sourcePoint" />
            <mxPoint x="80" y="510" as="targetPoint" />
          </mxGeometry>
        </mxCell>
        <mxCell id="93DRXRUWouROfZaIpJ4n-28" value="parent" style="edgeLabel;resizable=0;html=1;align=left;verticalAlign=bottom;" connectable="0" vertex="1" parent="93DRXRUWouROfZaIpJ4n-27">
          <mxGeometry x="-1" relative="1" as="geometry" />
        </mxCell>
        <mxCell id="93DRXRUWouROfZaIpJ4n-29" value="child" style="edgeLabel;resizable=0;html=1;align=right;verticalAlign=bottom;" connectable="0" vertex="1" parent="93DRXRUWouROfZaIpJ4n-27">
          <mxGeometry x="1" relative="1" as="geometry" />
        </mxCell>
        <mxCell id="93DRXRUWouROfZaIpJ4n-30" value="Operation de maintenance" style="ellipse;whiteSpace=wrap;html=1;" vertex="1" parent="1">
          <mxGeometry x="240" y="380" width="100" height="50" as="geometry" />
        </mxCell>
        <mxCell id="93DRXRUWouROfZaIpJ4n-32" value="Replacement de pièces et de produits" style="ellipse;whiteSpace=wrap;html=1;" vertex="1" parent="1">
          <mxGeometry x="240" y="525" width="100" height="50" as="geometry" />
        </mxCell>
      </root>
    </mxGraphModel>
  </diagram>
</mxfile>
